<svg width="414" height="764" viewBox="0 0 414 764" fill="none" xmlns="http://www.w3.org/2000/svg">
<g filter="url(#filter0_d)">
<path fill-rule="evenodd" clip-rule="evenodd" d="M379.564 259.056V649.529C379.564 672.642 377.152 681.024 372.622 689.474C368.092 697.924 361.446 704.555 352.976 709.074C344.507 713.593 336.106 716 312.938 716H101.062C77.8944 716 69.4935 713.593 61.024 709.074C52.5544 704.555 45.9075 697.924 41.3779 689.474C36.8484 681.024 34.4362 672.642 34.4362 649.529V276.069C33.0907 276.069 32 274.981 32 273.639V226.648C32 225.306 33.0907 224.218 34.4362 224.218V212.065C33.0907 212.065 32 210.977 32 209.634V162.644C32 161.301 33.0907 160.213 34.4362 160.213V138.338C33.0907 138.338 32 137.25 32 135.907V113.222C32 111.88 33.0907 110.792 34.4362 110.792V82.4711C34.4362 59.3577 36.8484 50.9762 41.3779 42.5262C45.9075 34.0763 52.5544 27.4447 61.024 22.9257C69.4935 18.4066 77.8944 16 101.062 16H312.938C336.106 16 344.507 18.4066 352.976 22.9257C361.446 27.4447 368.092 34.0763 372.622 42.5262C377.152 50.9762 379.564 59.3577 379.564 82.4711V177.227C380.909 177.227 382 178.315 382 179.657V256.625C382 257.967 380.909 259.056 379.564 259.056ZM53.9258 87.1343C53.9258 69.8919 53.9258 61.2707 57.2891 54.685C60.2476 48.8921 64.9684 44.1822 70.7748 41.2306C77.3758 37.875 86.0169 37.875 103.299 37.875L115.643 37.875C118.634 37.8829 121.109 40.1962 121.326 43.128C121.441 47.1571 122.221 50.1142 123.589 52.6665C125.075 55.4391 127.256 57.6151 130.035 59.0979C132.814 60.5807 136.072 61.3704 140.666 61.3704H271.677C276.271 61.3704 279.529 60.5807 282.308 59.0979C285.087 57.6151 287.268 55.4391 288.755 52.6665C290.121 50.1183 290.9 47.1667 291.017 43.1476C291.224 40.2065 293.703 37.8829 296.702 37.875L309.077 37.875C326.359 37.875 335 37.875 341.601 41.2306C347.407 44.1822 352.128 48.8921 355.087 54.685C358.45 61.2707 358.45 69.8919 358.45 87.1343V646.486C358.45 663.728 358.45 672.35 355.087 678.935C352.128 684.728 347.407 689.438 341.601 692.39C335 695.745 326.359 695.745 309.077 695.745H103.299C86.0169 695.745 77.3758 695.745 70.7748 692.39C64.9684 689.438 60.2476 684.728 57.2891 678.935C53.9258 672.35 53.9258 663.728 53.9258 646.486V87.1343Z" fill="white"/>
</g>
<rect x="152.998" y="684.403" width="108.817" height="4.05091" rx="2.02546" fill="black"/>
<path fill-rule="evenodd" clip-rule="evenodd" d="M243.949 50.0278C247.088 50.0278 249.633 47.4886 249.633 44.3565C249.633 41.2243 247.088 38.6852 243.949 38.6852C240.809 38.6852 238.264 41.2243 238.264 44.3565C238.264 47.4886 240.809 50.0278 243.949 50.0278Z" fill="#232323"/>
<rect x="185.48" y="41.1157" width="42.2274" height="6.48148" rx="3.24074" fill="#232323"/>
<defs>
<filter id="filter0_d" x="0" y="0" width="414" height="764" filterUnits="userSpaceOnUse" color-interpolation-filters="sRGB">
<feFlood flood-opacity="0" result="BackgroundImageFix"/>
<feColorMatrix in="SourceAlpha" type="matrix" values="0 0 0 0 0 0 0 0 0 0 0 0 0 0 0 0 0 0 127 0"/>
<feOffset dy="16"/>
<feGaussianBlur stdDeviation="16"/>
<feColorMatrix type="matrix" values="0 0 0 0 0 0 0 0 0 0 0 0 0 0 0 0 0 0 0.25 0"/>
<feBlend mode="normal" in2="BackgroundImageFix" result="effect1_dropShadow"/>
<feBlend mode="normal" in="SourceGraphic" in2="effect1_dropShadow" result="shape"/>
</filter>
</defs>
</svg>
